# xmcd CD database file
#
# Track frame offsets:
#	150
#	36243
#	78023
#	130712
#	188493
#	237428
#
# Disc length: 3590 seconds
#
# Revision: 1
# Processed by: cddbd v1.5.2PL0 Copyright (c) Steve Scherf et al.
# Submitted via: CDex 1.51
#
DISCID=3e0e0406
DTITLE=Liquid Mind - Liquid Mind IX - Lullaby
DYEAR=2009
DGENRE=New Age
TTITLE0=Whisper To Me
TTITLE1=Letting Go
TTITLE2=Into The Light
TTITLE3=We Hold Peace In Our Hands
TTITLE4=My Quiet Spirit
TTITLE5=Mountain Lullaby
EXTD=YEAR: 2009
EXTT0=
EXTT1=
EXTT2=
EXTT3=
EXTT4=
EXTT5=
PLAYORDER=
